<svg xmlns="http://www.w3.org/2000/svg" viewBox="0 0 154.62 89.87"><defs><style>.cls-1{fill:#d9d8ee;}.cls-2{fill:#e6e4f3;}.cls-3{fill:#f1f2fa;}.cls-4{fill:#f2928b;}.cls-5{fill:#dc3f47;}.cls-6{fill:#e58887;}.cls-7{fill:#e84043;}.cls-8{fill:#405d6d;}.cls-9{fill:#f2ae9f;}.cls-10{fill:#112439;}.cls-11{fill:#8b143a;}.cls-12{fill:#e72662;}.cls-13{fill:#fff;}.cls-14{fill:#fbde63;opacity:0.57;}.cls-15{fill:#f4f4f4;}.cls-16{fill:#99d6f0;}.cls-17{fill:#379736;}.cls-18{fill:#8e4d21;}.cls-19{fill:#e78f26;}.cls-20{fill:#e27829;}.cls-21{fill:#4a494a;}.cls-22{fill:#c6c5dd;}.cls-23{fill:#71b963;}</style></defs><title>Tipoaceptacion</title><g id="Capa_2" data-name="Capa 2"><g id="Capa_8" data-name="Capa 8"><path class="cls-1" d="M128.85,8.59h-4.43a6.12,6.12,0,0,0-5.3,3.06l-2.22,3.84a6.14,6.14,0,0,0,0,6.12l2.22,3.84a6.12,6.12,0,0,0,5.3,3.06h4.43a6.12,6.12,0,0,0,5.3-3.06l2.22-3.84a6.14,6.14,0,0,0,0-6.12l-2.22-3.84A6.12,6.12,0,0,0,128.85,8.59Z"/><path class="cls-2" d="M129.61,9.5h-5.94a3.91,3.91,0,0,0-3.39,1.95l-3,5.15a3.93,3.93,0,0,0,0,3.9l3,5.15a3.91,3.91,0,0,0,3.39,2h5.94a3.91,3.91,0,0,0,3.38-2l3-5.15a3.88,3.88,0,0,0,0-3.9l-3-5.15A3.91,3.91,0,0,0,129.61,9.5Z"/><path class="cls-3" d="M129.16,10.27h-5a3.91,3.91,0,0,0-3.38,2l-2.52,4.37a3.88,3.88,0,0,0,0,3.9l2.52,4.37a3.91,3.91,0,0,0,3.38,2h5a3.89,3.89,0,0,0,3.38-2l2.53-4.37a3.93,3.93,0,0,0,0-3.9l-2.53-4.37A3.89,3.89,0,0,0,129.16,10.27Z"/><rect class="cls-1" x="127.11" y="12.91" width="2.72" height="12.05" rx="1.36" transform="translate(205.92 123.16) rotate(-135)"/><rect class="cls-1" x="122.45" y="18.07" width="2.63" height="6.28" rx="1.32" transform="translate(30.35 105.11) rotate(-51.65)"/><rect class="cls-4" x="126.48" y="64.15" width="2.84" height="7.06" rx="0.85" transform="translate(97.45 -73.78) rotate(49.97)"/><rect class="cls-5" x="130.76" y="58.86" width="2.84" height="10.44" rx="0.85" transform="translate(96.22 -78.34) rotate(49.97)"/><rect class="cls-4" x="149.98" y="64.41" width="2.84" height="7.06" rx="0.85" transform="translate(-0.34 135.12) rotate(-48.05)"/><rect class="cls-5" x="145.82" y="58.99" width="2.84" height="10.44" rx="0.85" transform="translate(1.06 130.79) rotate(-48.05)"/><circle class="cls-4" cx="133.87" cy="50.41" r="1.61"/><circle class="cls-6" cx="133.87" cy="50.41" r="1.04"/><circle class="cls-4" cx="146.39" cy="50.41" r="1.61"/><path class="cls-7" d="M137,58.08h6.28A4.73,4.73,0,0,1,148,62.81v9a0,0,0,0,1,0,0H132.26a0,0,0,0,1,0,0v-9A4.73,4.73,0,0,1,137,58.08Z"/><circle class="cls-6" cx="146.39" cy="50.41" r="1.04"/><rect class="cls-4" x="137.01" y="54.76" width="6.23" height="6.23" rx="1.87"/><circle class="cls-8" cx="134.13" cy="46.73" r="1.35"/><circle class="cls-8" cx="146.02" cy="46.71" r="1.35"/><rect class="cls-9" x="133.87" y="42.04" width="12.53" height="15.84" rx="3.77"/><rect class="cls-10" x="137.01" y="49.29" width="1.55" height="2.24" rx="0.47"/><rect class="cls-10" x="141.7" y="49.29" width="1.55" height="2.24" rx="0.47"/><path class="cls-4" d="M139.87,50.77h.52a.39.39,0,0,1,.39.39v1.26a0,0,0,0,1,0,0h-1.31a0,0,0,0,1,0,0V51.17a.39.39,0,0,1,.39-.39Z"/><path class="cls-11" d="M139.14,53.06h2a1.49,1.49,0,0,1,1.49,1.49V56a.12.12,0,0,1-.12.12h-4.71a.12.12,0,0,1-.12-.12v-1.5A1.49,1.49,0,0,1,139.14,53.06Z" transform="translate(280.26 109.23) rotate(180)"/><circle class="cls-8" cx="136.73" cy="44.52" r="2.86"/><circle class="cls-8" cx="140.13" cy="42.66" r="2.86"/><circle class="cls-8" cx="143.65" cy="44.52" r="2.86"/><path class="cls-12" d="M139.64,54.69c-.6,0-.81-.49-1.17-.37-.15,0-.33.2-.46.64a2.38,2.38,0,0,0,.79.83,2.65,2.65,0,0,0,2.14.24,1.11,1.11,0,0,0,.22-.88.89.89,0,0,0-.4-.6C140.42,54.37,140.2,54.73,139.64,54.69Z"/><path class="cls-13" d="M138.64,53.06h3a0,0,0,0,1,0,0v.23a.35.35,0,0,1-.35.35H139a.35.35,0,0,1-.35-.35v-.23A0,0,0,0,1,138.64,53.06Z"/><rect class="cls-8" x="133.35" y="45.63" width="1.04" height="4.78" rx="0.31"/><rect class="cls-8" x="145.76" y="45.6" width="1.04" height="4.78" rx="0.31" transform="translate(292.56 95.99) rotate(180)"/><circle class="cls-4" cx="135.92" cy="52.83" r="0.81"/><circle class="cls-4" cx="144.31" cy="52.83" r="0.81"/><rect class="cls-7" x="137.01" y="58.08" width="6.23" height="3.13"/><rect class="cls-8" x="141.46" y="48.52" width="2.03" height="0.4" rx="0.12"/><rect class="cls-8" x="136.77" y="48.52" width="2.03" height="0.4" rx="0.12"/><rect class="cls-14" x="132.26" y="70.77" width="15.75" height="0.33"/><rect class="cls-14" x="132.26" y="69.65" width="15.75" height="0.33"/><rect class="cls-14" x="132.26" y="68.43" width="15.75" height="0.33"/><rect class="cls-11" x="131.54" y="71.85" width="17.09" height="3.52" rx="0.68"/><rect class="cls-11" x="133.35" y="74.11" width="6.13" height="15.71" rx="1.77"/><rect class="cls-11" x="140.79" y="74.11" width="6.13" height="15.71" rx="1.77"/><path class="cls-9" d="M102.24,65.7H103a1.2,1.2,0,0,1,1.2,1.2v6.54a0,0,0,0,1,0,0H101a0,0,0,0,1,0,0V66.9a1.2,1.2,0,0,1,1.2-1.2Z" transform="translate(160.24 179.31) rotate(-151.85)"/><path class="cls-10" d="M103.49,60.48h3.15a0,0,0,0,1,0,0v7.66a1.21,1.21,0,0,1-1.21,1.21h-.73a1.21,1.21,0,0,1-1.21-1.21V60.48A0,0,0,0,1,103.49,60.48Z" transform="translate(167.08 171.71) rotate(-151.85)"/><rect class="cls-15" x="101.57" y="67.49" width="3.41" height="1.49" rx="0.57" transform="translate(162.15 177.12) rotate(-151.85)"/><path class="cls-9" d="M120.8,65.74h3.11a0,0,0,0,1,0,0v6.54a1.2,1.2,0,0,1-1.2,1.2H122a1.2,1.2,0,0,1-1.2-1.2V65.74A0,0,0,0,1,120.8,65.74Z" transform="translate(-18.37 65.95) rotate(-28.15)"/><path class="cls-10" d="M119.53,60.52h.73a1.21,1.21,0,0,1,1.21,1.21v7.66a0,0,0,0,1,0,0h-3.15a0,0,0,0,1,0,0V61.73a1.21,1.21,0,0,1,1.21-1.21Z" transform="translate(-16.46 64.24) rotate(-28.15)"/><rect class="cls-15" x="119.98" y="67.54" width="3.41" height="1.49" rx="0.57" transform="translate(-17.82 65.48) rotate(-28.15)"/><rect class="cls-10" x="104.06" y="72.62" width="17.62" height="3.35" rx="1.29"/><circle class="cls-4" cx="106.3" cy="50.84" r="1.69"/><circle class="cls-6" cx="106.3" cy="50.84" r="1.09"/><circle class="cls-4" cx="119.45" cy="50.84" r="1.69"/><path class="cls-16" d="M111,58.67h3.82A6.35,6.35,0,0,1,121.14,65v8.09a0,0,0,0,1,0,0H104.61a0,0,0,0,1,0,0V65A6.35,6.35,0,0,1,111,58.67Z"/><path class="cls-17" d="M107.53,59h2.07a0,0,0,0,1,0,0V71.4a1.85,1.85,0,0,1-1.85,1.85H105a.5.5,0,0,1-.5-.5V62.07A3.07,3.07,0,0,1,107.53,59Z"/><path class="cls-17" d="M116.64,59h2.76a1.84,1.84,0,0,1,1.84,1.84v12.4a0,0,0,0,1,0,0h-2.07a3,3,0,0,1-3-3V59.49a.49.49,0,0,1,.49-.49Z" transform="translate(237.39 132.25) rotate(-180)"/><path class="cls-13" d="M109.14,59.14h7.4a.14.14,0,0,1,.14.14V60a2.39,2.39,0,0,1-2.39,2.39h-2.89A2.39,2.39,0,0,1,109,60v-.76A.14.14,0,0,1,109.14,59.14Z"/><path class="cls-13" d="M116.79,62.2a2,2,0,0,1-.64.6,1.64,1.64,0,0,1-.58.21.4.4,0,0,1-.43-.42v-3.5a.4.4,0,0,1,.38-.42h1a.38.38,0,0,1,.36.28A4.07,4.07,0,0,1,116.79,62.2Z"/><path class="cls-13" d="M109,62.2a2.16,2.16,0,0,0,.64.6,1.73,1.73,0,0,0,.68.22.31.31,0,0,0,.34-.32V59a.32.32,0,0,0-.32-.32h-1.08a.32.32,0,0,0-.31.23A4.16,4.16,0,0,0,109,62.2Z"/><circle class="cls-6" cx="119.45" cy="50.84" r="1.09"/><rect class="cls-4" x="109.6" y="55.4" width="6.54" height="6.54" rx="2.51"/><rect class="cls-9" x="106.3" y="42.05" width="13.14" height="16.62" rx="5.05"/><rect class="cls-10" x="109.6" y="49.67" width="1.63" height="2.35" rx="0.63"/><rect class="cls-10" x="114.52" y="49.67" width="1.63" height="2.35" rx="0.63"/><path class="cls-4" d="M112.71,52.1H113a.53.53,0,0,1,.53.53V53a0,0,0,0,1,0,0h-1.37a0,0,0,0,1,0,0v-.33A.53.53,0,0,1,112.71,52.1Z"/><path class="cls-11" d="M112.27,53.62h1.2a2,2,0,0,1,2,2v1.1a.16.16,0,0,1-.16.16h-4.88a.16.16,0,0,1-.16-.16v-1.1A2,2,0,0,1,112.27,53.62Z" transform="translate(225.75 110.5) rotate(180)"/><path class="cls-12" d="M112.36,55.33c-.63,0-.85-.51-1.23-.39-.16.05-.35.21-.49.68a2.67,2.67,0,0,0,.84.87,2.84,2.84,0,0,0,2.25.25,1.21,1.21,0,0,0,.22-.92.93.93,0,0,0-.41-.64C113.17,55,112.94,55.37,112.36,55.33Z"/><path class="cls-13" d="M111.31,53.62h3.13a0,0,0,0,1,0,0v.14a.47.47,0,0,1-.47.47h-2.19a.47.47,0,0,1-.47-.47v-.14A0,0,0,0,1,111.31,53.62Z"/><circle class="cls-10" cx="112.83" cy="64.46" r="0.35"/><circle class="cls-10" cx="112.83" cy="66.09" r="0.35"/><circle class="cls-10" cx="112.83" cy="67.72" r="0.35"/><circle class="cls-10" cx="112.83" cy="69.36" r="0.35"/><circle class="cls-10" cx="112.83" cy="70.99" r="0.35"/><rect class="cls-18" x="106.26" y="47.45" width="0.72" height="3.84" rx="0.28"/><rect class="cls-18" x="118.73" y="47.45" width="0.72" height="3.84" rx="0.28"/><circle class="cls-18" cx="106.1" cy="48.85" r="0.89"/><circle class="cls-18" cx="119.62" cy="48.85" r="0.89"/><rect class="cls-18" x="109.35" y="49.05" width="2.13" height="0.42" rx="0.16"/><rect class="cls-18" x="114.26" y="49.05" width="2.13" height="0.42" rx="0.16"/><path class="cls-19" d="M117.81,40.51V44.2a1.41,1.41,0,1,1-2.82,0V39.39a1.39,1.39,0,0,1,.08-.46,6.07,6.07,0,0,0-.84-.21s0,.08,0,.12v4.81a1.41,1.41,0,1,1-2.82,0V38.84s0-.08,0-.12a6.15,6.15,0,0,0-.87.22,1.33,1.33,0,0,1,.08.45V44.2a1.41,1.41,0,1,1-2.82,0V40.54A7.36,7.36,0,0,0,105.45,46v1.59a.8.8,0,0,0,.81.8H119.4a.8.8,0,0,0,.81-.8V46A7.38,7.38,0,0,0,117.81,40.51Z"/><path class="cls-20" d="M115,44.2c0,.78.63,1.84,1.41,1.84s1.41-1.06,1.41-1.84V40.51a7.43,7.43,0,0,0-2.74-1.58,1.39,1.39,0,0,0-.08.46Z"/><path class="cls-20" d="M109.23,46c.78,0,1.41-1.06,1.41-1.84V39.39a1.33,1.33,0,0,0-.08-.45,7.34,7.34,0,0,0-2.74,1.6V44.2C107.82,45,108.45,46,109.23,46Z"/><path class="cls-20" d="M111.42,43.65c0,.78.63,2,1.41,2s1.41-1.18,1.41-2V38.84s0-.08,0-.12a7.23,7.23,0,0,0-1.4-.14,7.15,7.15,0,0,0-1.4.14s0,.08,0,.12Z"/><rect class="cls-20" x="104.5" y="47.6" width="16.64" height="0.75" rx="0.29"/><rect class="cls-10" x="106.62" y="74.29" width="5.27" height="15.01" rx="1.11"/><rect class="cls-10" x="113.51" y="74.29" width="5.27" height="15.01" rx="1.11"/><path class="cls-2" d="M9,1.91H35.59a9,9,0,0,1,9,9v79a0,0,0,0,1,0,0H0a0,0,0,0,1,0,0v-79A9,9,0,0,1,9,1.91Z"/><rect class="cls-1" x="4.55" y="15.35" width="35.46" height="69.99" rx="6.79"/><path class="cls-21" d="M9,1.91H35.59a9,9,0,0,1,9,9v0a0,0,0,0,1,0,0H0a0,0,0,0,1,0,0v0A9,9,0,0,1,9,1.91Z"/><path class="cls-21" d="M3.23,86.16H41.35a3.23,3.23,0,0,1,3.23,3.23v.44a0,0,0,0,1,0,0H0a0,0,0,0,1,0,0v-.44A3.23,3.23,0,0,1,3.23,86.16Z"/><rect class="cls-1" x="26.77" width="12.59" height="4.66" rx="1.41"/><rect class="cls-22" x="4.55" y="24.54" width="35.46" height="1.96" rx="0.72"/><rect class="cls-23" x="4.55" y="28.51" width="35.46" height="1.96" rx="0.72"/><rect class="cls-22" x="4.55" y="32.48" width="35.46" height="1.96" rx="0.72"/><rect class="cls-23" x="4.55" y="36.44" width="35.46" height="1.96" rx="0.72"/><rect class="cls-22" x="4.55" y="40.41" width="35.46" height="1.96" rx="0.72"/><rect class="cls-22" x="4.55" y="44.37" width="35.46" height="1.96" rx="0.72"/><rect class="cls-23" x="4.55" y="48.34" width="35.46" height="1.96" rx="0.72"/><rect class="cls-23" x="4.55" y="52.3" width="35.46" height="1.96" rx="0.72"/><rect class="cls-22" x="4.55" y="56.27" width="35.46" height="1.96" rx="0.72"/><rect class="cls-22" x="4.55" y="60.23" width="35.46" height="1.96" rx="0.72"/><rect class="cls-23" x="4.55" y="64.2" width="35.46" height="1.96" rx="0.72"/><rect class="cls-22" x="4.55" y="68.16" width="35.46" height="1.96" rx="0.72"/><rect class="cls-22" x="4.55" y="72.13" width="35.46" height="1.96" rx="0.72"/><path class="cls-2" d="M58.88,1.91H85.49a9,9,0,0,1,9,9v79a0,0,0,0,1,0,0H49.9a0,0,0,0,1,0,0v-79A9,9,0,0,1,58.88,1.91Z"/><rect class="cls-1" x="54.45" y="15.35" width="35.46" height="69.99" rx="6.79"/><path class="cls-21" d="M58.88,1.91H85.49a9,9,0,0,1,9,9v0a0,0,0,0,1,0,0H49.9a0,0,0,0,1,0,0v0A9,9,0,0,1,58.88,1.91Z"/><rect class="cls-1" x="76.67" width="12.59" height="4.66" rx="1.41"/><rect class="cls-22" x="54.45" y="24.54" width="35.46" height="1.96" rx="0.72"/><rect class="cls-23" x="54.45" y="28.51" width="35.46" height="1.96" rx="0.72"/><rect class="cls-22" x="54.45" y="32.48" width="35.46" height="1.96" rx="0.72"/><rect class="cls-23" x="54.45" y="36.44" width="35.46" height="1.96" rx="0.72"/><rect class="cls-22" x="54.45" y="40.41" width="35.46" height="1.96" rx="0.72"/><rect class="cls-22" x="54.45" y="44.37" width="35.46" height="1.96" rx="0.72"/><rect class="cls-23" x="54.45" y="48.34" width="35.46" height="1.96" rx="0.72"/><rect class="cls-23" x="54.45" y="52.3" width="35.46" height="1.96" rx="0.72"/><rect class="cls-22" x="54.45" y="56.27" width="35.46" height="1.96" rx="0.72"/><rect class="cls-22" x="54.45" y="60.23" width="35.46" height="1.96" rx="0.72"/><rect class="cls-23" x="54.45" y="64.2" width="35.46" height="1.96" rx="0.72"/><rect class="cls-22" x="54.45" y="68.16" width="35.46" height="1.96" rx="0.72"/><rect class="cls-22" x="54.45" y="72.13" width="35.46" height="1.96" rx="0.72"/><path class="cls-21" d="M53.13,86.16H91.25a3.23,3.23,0,0,1,3.23,3.23v.44a0,0,0,0,1,0,0H49.9a0,0,0,0,1,0,0v-.44A3.23,3.23,0,0,1,53.13,86.16Z"/></g></g></svg>