<svg xmlns="http://www.w3.org/2000/svg" viewBox="0 0 180.93 109.62"><defs><style>.cls-1{fill:#f2928b;}.cls-2{fill:#e58887;}.cls-3{fill:#99d6f0;}.cls-4{fill:#112439;}.cls-5{fill:#fff;}.cls-6{fill:#f2ae9f;}.cls-7{fill:#8b143a;}.cls-8{fill:#e72662;}.cls-9{fill:#8e4d21;}.cls-10{fill:#e78f26;}.cls-11{fill:#e27829;}.cls-12{fill:#e6e4f3;}.cls-13{fill:#c6c5dd;}.cls-14{fill:#d9d8ee;}.cls-15{fill:#e84043;}.cls-16{fill:#405d6d;}.cls-17{fill:#fbde63;opacity:0.57;}</style></defs><title>Tipoasesorar</title><g id="Capa_2" data-name="Capa 2"><g id="Capa_10" data-name="Capa 10"><circle class="cls-1" cx="33.43" cy="38.58" r="5.32"/><circle class="cls-2" cx="33.43" cy="38.58" r="3.43"/><circle class="cls-1" cx="74.8" cy="38.58" r="5.32"/><path class="cls-3" d="M51.66,63.25h4.9A23.56,23.56,0,0,1,80.12,86.8v21.91a0,0,0,0,1,0,0h-52a0,0,0,0,1,0,0V86.8A23.56,23.56,0,0,1,51.66,63.25Z"/><path class="cls-4" d="M43.52,64.27h.3a0,0,0,0,1,0,0v43.47a1.38,1.38,0,0,1-1.38,1.38H29a1.38,1.38,0,0,1-1.38-1.38V80.15A15.88,15.88,0,0,1,43.52,64.27Z"/><path class="cls-4" d="M65.79,64.27H79.09a1.38,1.38,0,0,1,1.38,1.38v43.47a0,0,0,0,1,0,0h-.19A15.88,15.88,0,0,1,64.41,93.24V65.65a1.38,1.38,0,0,1,1.38-1.38Z" transform="translate(144.88 173.39) rotate(-180)"/><path class="cls-5" d="M42.4,64.72H65.62a.47.47,0,0,1,.47.47V67A8.06,8.06,0,0,1,58,75.07H50A8.06,8.06,0,0,1,41.93,67V65.18a.47.47,0,0,1,.47-.47Z"/><path class="cls-5" d="M66.45,74.36a7,7,0,0,1-2,1.88,5.43,5.43,0,0,1-1.83.64,1.24,1.24,0,0,1-1.38-1.3v-11a1.26,1.26,0,0,1,1.21-1.3h3.09a1.21,1.21,0,0,1,1.15.88C68,68.5,67.83,72.41,66.45,74.36Z"/><path class="cls-5" d="M41.87,74.35a6.83,6.83,0,0,0,2,1.88,5.3,5.3,0,0,0,2.12.68,1,1,0,0,0,1.09-1V64.25a1,1,0,0,0-1-1H42.66a1,1,0,0,0-1,.69C40.33,68.39,40.47,72.38,41.87,74.35Z"/><circle class="cls-2" cx="74.8" cy="38.58" r="3.43"/><rect class="cls-1" x="43.82" y="52.95" width="20.59" height="20.59" rx="8.39"/><rect class="cls-6" x="33.43" y="10.92" width="41.38" height="52.32" rx="19.01"/><rect class="cls-4" x="43.82" y="34.89" width="5.12" height="7.38" rx="2.54"/><rect class="cls-4" x="59.29" y="34.89" width="5.12" height="7.38" rx="2.54"/><path class="cls-1" d="M54.1,42.55h0a2.15,2.15,0,0,1,2.15,2.15v.56a0,0,0,0,1,0,0H52a0,0,0,0,1,0,0V44.7A2.15,2.15,0,0,1,54.1,42.55Z"/><path class="cls-7" d="M54.07,47.34h.09a8.14,8.14,0,0,1,8.14,8.14v1.47a.66.66,0,0,1-.66.66H46.59a.66.66,0,0,1-.66-.66V55.48a8.14,8.14,0,0,1,8.14-8.14Z" transform="translate(108.23 104.94) rotate(180)"/><path class="cls-8" d="M52.5,52.72c-2-.13-2.69-1.62-3.88-1.23-.5.16-1.1.66-1.53,2.13a8.09,8.09,0,0,0,2.63,2.74,8.84,8.84,0,0,0,7.08.79,3.67,3.67,0,0,0,.7-2.9,2.92,2.92,0,0,0-1.29-2C55.06,51.68,54.34,52.85,52.5,52.72Z"/><path class="cls-5" d="M49.19,47.34H59a0,0,0,0,1,0,0v.74a1.17,1.17,0,0,1-1.17,1.17h-7.5a1.17,1.17,0,0,1-1.17-1.17v-.74A0,0,0,0,1,49.19,47.34Z"/><circle class="cls-4" cx="53.97" cy="81.45" r="1.1"/><circle class="cls-4" cx="53.97" cy="86.59" r="1.1"/><circle class="cls-4" cx="53.97" cy="91.73" r="1.1"/><circle class="cls-4" cx="53.97" cy="96.87" r="1.1"/><circle class="cls-4" cx="53.97" cy="102.02" r="1.1"/><rect class="cls-9" x="33.28" y="27.91" width="2.27" height="12.1" rx="1.13"/><rect class="cls-9" x="72.53" y="27.91" width="2.27" height="12.1" rx="1.13"/><circle class="cls-9" cx="32.8" cy="32.34" r="2.81"/><circle class="cls-9" cx="75.35" cy="32.34" r="2.81"/><rect class="cls-9" x="43.02" y="32.95" width="6.71" height="1.31" rx="0.65"/><rect class="cls-9" x="58.49" y="32.95" width="6.71" height="1.31" rx="0.65"/><path class="cls-10" d="M69.64,6.08V17.7a4.44,4.44,0,1,1-8.88,0V2.55A4.45,4.45,0,0,1,61,1.09,25.86,25.86,0,0,0,58.37.42c0,.13,0,.26,0,.4V16a4.44,4.44,0,1,1-8.88,0V.82c0-.14,0-.27,0-.4a22.75,22.75,0,0,0-2.73.7,4.52,4.52,0,0,1,.25,1.43V17.7a4.44,4.44,0,0,1-8.88,0V6.17a23.18,23.18,0,0,0-7.46,17v5a2.53,2.53,0,0,0,2.53,2.53H74.66a2.53,2.53,0,0,0,2.53-2.53v-5A23.18,23.18,0,0,0,69.64,6.08Z"/><path class="cls-11" d="M60.76,17.7c0,2.45,2,5.78,4.44,5.78s4.44-3.33,4.44-5.78V6.08a23.5,23.5,0,0,0-8.61-5,4.45,4.45,0,0,0-.27,1.46Z"/><path class="cls-11" d="M42.65,23.48c2.45,0,4.44-3.33,4.44-5.78V2.55a4.52,4.52,0,0,0-.25-1.43,23.28,23.28,0,0,0-8.63,5.05V17.7C38.21,20.15,40.2,23.48,42.65,23.48Z"/><path class="cls-11" d="M49.53,16c0,2.45,2,6.15,4.44,6.15s4.44-3.7,4.44-6.15V.82c0-.14,0-.27,0-.4a23.26,23.26,0,0,0-8.8,0c0,.13,0,.26,0,.4Z"/><rect class="cls-11" x="27.75" y="28.38" width="52.37" height="2.37" rx="1.18"/><rect class="cls-12" x="7.98" y="42.55" width="94.18" height="42.94" rx="9.82"/><rect class="cls-13" x="14.18" y="47.24" width="82.81" height="34.07" rx="6.39"/><rect class="cls-9" y="98.58" width="180.93" height="11.04" rx="2.79"/><rect class="cls-14" x="45.93" y="69.89" width="16.37" height="32.88" rx="4.62"/><rect class="cls-13" x="33.43" y="97.98" width="41.38" height="5.51" rx="1.9"/><circle class="cls-1" cx="120.94" cy="38.82" r="5.32"/><circle class="cls-2" cx="120.94" cy="38.82" r="3.43"/><circle class="cls-1" cx="162.32" cy="38.82" r="5.32"/><path class="cls-15" d="M139.18,64.15h4.9a23.56,23.56,0,0,1,23.56,23.56v21.91a0,0,0,0,1,0,0h-52a0,0,0,0,1,0,0V87.71A23.56,23.56,0,0,1,139.18,64.15Z"/><circle class="cls-2" cx="162.32" cy="38.82" r="3.43"/><rect class="cls-1" x="131.34" y="53.19" width="20.59" height="20.59" rx="8.39"/><circle class="cls-16" cx="121.8" cy="26.68" r="4.47"/><circle class="cls-16" cx="161.08" cy="26.6" r="4.47"/><rect class="cls-6" x="120.94" y="11.16" width="41.38" height="52.32" rx="19.01"/><rect class="cls-4" x="131.34" y="35.13" width="5.12" height="7.38" rx="2.54"/><rect class="cls-4" x="146.81" y="35.13" width="5.12" height="7.38" rx="2.54"/><path class="cls-1" d="M141.62,40h0a2.15,2.15,0,0,1,2.15,2.15V45.5a0,0,0,0,1,0,0h-4.32a0,0,0,0,1,0,0V42.17A2.15,2.15,0,0,1,141.62,40Z"/><path class="cls-7" d="M141.58,47.57h.09a8.14,8.14,0,0,1,8.14,8.14v1.47a.66.66,0,0,1-.66.66H134.1a.66.66,0,0,1-.66-.66V55.71a8.14,8.14,0,0,1,8.14-8.14Z" transform="translate(283.26 105.41) rotate(180)"/><circle class="cls-16" cx="130.39" cy="19.37" r="9.45"/><circle class="cls-16" cx="141.63" cy="13.21" r="9.45"/><circle class="cls-16" cx="153.24" cy="19.37" r="9.45"/><path class="cls-8" d="M140,53c-2-.14-2.69-1.63-3.88-1.24-.5.17-1.1.66-1.53,2.13a7.92,7.92,0,0,0,2.63,2.74,8.8,8.8,0,0,0,7.08.79,3.68,3.68,0,0,0,.7-2.89,2.91,2.91,0,0,0-1.3-2C142.58,51.91,141.85,53.08,140,53Z"/><path class="cls-5" d="M136.71,47.57h9.84a0,0,0,0,1,0,0v.74a1.17,1.17,0,0,1-1.17,1.17h-7.5a1.17,1.17,0,0,1-1.17-1.17v-.74A0,0,0,0,1,136.71,47.57Z"/><rect class="cls-16" x="119.23" y="23.03" width="3.43" height="15.79" rx="1.71"/><rect class="cls-16" x="160.22" y="22.95" width="3.43" height="15.79" rx="1.71" transform="translate(323.88 61.68) rotate(-180)"/><circle class="cls-1" cx="127.72" cy="46.81" r="2.67"/><circle class="cls-1" cx="155.43" cy="46.81" r="2.67"/><rect class="cls-15" x="131.34" y="64.15" width="20.59" height="10.35"/><rect class="cls-16" x="146.01" y="32.59" width="6.71" height="1.31" rx="0.65"/><rect class="cls-16" x="130.54" y="32.59" width="6.71" height="1.31" rx="0.65"/><rect class="cls-17" x="115.62" y="106.08" width="52.02" height="1.1"/><rect class="cls-17" x="115.62" y="102.37" width="52.02" height="1.1"/><rect class="cls-17" x="115.62" y="98.33" width="52.02" height="1.1"/></g></g></svg>