<svg xmlns="http://www.w3.org/2000/svg" viewBox="0 0 18.33 22.06"><defs><style>.cls-1{fill:#878888;}</style></defs><title>Tipodomo</title><g id="Capa_2" data-name="Capa 2"><g id="Capa_10" data-name="Capa 10"><rect class="cls-1" y="18.26" width="18.33" height="3.8" rx="1.9"/><rect class="cls-1" x="3.57" y="4.17" width="11.19" height="0.64" rx="0.32"/><rect class="cls-1" x="3.57" y="6.63" width="11.19" height="0.64" rx="0.32"/><rect class="cls-1" x="3.57" y="7.86" width="11.19" height="0.64" rx="0.32"/><rect class="cls-1" x="3.57" y="9.09" width="11.19" height="0.64" rx="0.32"/><rect class="cls-1" x="3.57" y="10.32" width="11.19" height="0.64" rx="0.32"/><rect class="cls-1" x="3.57" y="11.55" width="11.19" height="0.64" rx="0.32"/><rect class="cls-1" x="3.57" y="12.78" width="11.19" height="0.64" rx="0.32"/><rect class="cls-1" x="3.57" y="14.03" width="11.19" height="0.64" rx="0.32"/><path class="cls-1" d="M14.17,4.64A4.47,4.47,0,0,0,9.71.17H8.62A4.47,4.47,0,0,0,4.16,4.64V5.4h10Z"/><rect class="cls-1" x="4.16" y="6.04" width="10.02" height="9.36"/><path class="cls-1" d="M4.16,17.6a4.46,4.46,0,0,0,4.46,4.46H9.71a4.46,4.46,0,0,0,4.46-4.46V16h-10Z"/><rect class="cls-1" x="3.57" y="16.61" width="11.19" height="0.64" rx="0.32"/><rect class="cls-1" x="5.01" y="2.12" width="5.12" height="0.89" rx="0.45" transform="translate(10.13 -5.01) rotate(90)"/><rect class="cls-1" x="7.86" y="2.12" width="5.12" height="0.89" rx="0.45" transform="translate(12.98 -7.86) rotate(90)"/></g></g></svg>