<svg xmlns="http://www.w3.org/2000/svg" viewBox="0 0 133.97 61.09"><defs><style>.cls-1{fill:#71b963;}.cls-2{fill:#d9d8ee;}.cls-3{fill:#e6e4f3;}.cls-4{fill:#dadaef;}.cls-5{fill:#112439;}.cls-6{fill:#c6c5dd;}.cls-7{fill:#f2928b;}.cls-8{fill:#dc3f47;}.cls-9{fill:#e58887;}.cls-10{fill:#e84043;}.cls-11{fill:#405d6d;}.cls-12{fill:#f2ae9f;}.cls-13{fill:#8b143a;}.cls-14{fill:#e72662;}.cls-15{fill:#fff;}.cls-16{fill:#fbde63;opacity:0.57;}.cls-17{fill:#f4f4f4;}.cls-18{fill:#99d6f0;}.cls-19{fill:#8e4d21;}.cls-20{fill:#e78f26;}.cls-21{fill:#e27829;}.cls-22{fill:#a55924;}.cls-23{fill:#9a5120;}.cls-24{fill:#cd773d;}.cls-25{fill:#080e15;}.cls-26{fill:#ec8e83;}</style></defs><title>TipoRecurso 11</title><g id="Capa_2" data-name="Capa 2"><g id="Capa_7" data-name="Capa 7"><path class="cls-1" d="M22.56,18a171.85,171.85,0,0,0,93-.28.37.37,0,0,0-.2-.72,171,171,0,0,1-92.56.27.38.38,0,0,0-.2.73Z"/><path class="cls-1" d="M22.21,12a171.85,171.85,0,0,0,93-.27A.37.37,0,0,0,115,11a171.08,171.08,0,0,1-92.56.27.37.37,0,0,0-.2.72Z"/><path class="cls-1" d="M22.21,14.65a171.85,171.85,0,0,0,93-.28.37.37,0,0,0-.2-.72,171,171,0,0,1-92.56.27.38.38,0,0,0-.2.73Z"/><rect class="cls-2" x="18.74" y="4.72" width="1.83" height="5.22" rx="0.92"/><circle class="cls-2" cx="19.66" cy="5.32" r="1.33"/><path class="cls-3" d="M27.7,60.73H11.61a4.43,4.43,0,0,1-4.36-5.22l7-38.89A4.43,4.43,0,0,1,18.6,13h1.71a4.42,4.42,0,0,1,4.35,3.6l7.4,38.9A4.43,4.43,0,0,1,27.7,60.73Z"/><path class="cls-4" d="M28.2,55.75H11.11a2.39,2.39,0,0,1-2.36-2.83l6.47-36a2.4,2.4,0,0,1,2.37-2h3.76a2.39,2.39,0,0,1,2.36,2l6.86,36A2.41,2.41,0,0,1,28.2,55.75Z"/><rect class="cls-5" x="20.4" y="15.72" width="0.46" height="16.88" rx="0.23" transform="translate(-11.04 21.66) rotate(-45)"/><rect class="cls-5" x="17.92" y="15.7" width="0.46" height="16.91" rx="0.23" transform="translate(13.9 54.07) rotate(-135)"/><rect class="cls-5" x="21.35" y="30.07" width="0.75" height="27.41" rx="0.33" transform="translate(-24.59 28.18) rotate(-45)"/><rect class="cls-5" x="17.32" y="30.04" width="0.75" height="27.46" rx="0.33" transform="translate(-0.74 87.23) rotate(-135)"/><rect class="cls-6" y="53.1" width="39.88" height="7.63" rx="3.82"/><rect class="cls-6" x="12.9" y="9.15" width="13.44" height="7.63" rx="3.08"/><path class="cls-5" d="M17.37,1.38a3.58,3.58,0,0,0-.12,6.11c.41.27.78-.38.38-.64A2.84,2.84,0,0,1,17.74,2c.41-.25,0-.9-.37-.64Z"/><path class="cls-5" d="M15.34.42a5.17,5.17,0,0,0,.48,8c.4.28.77-.37.38-.65A4.42,4.42,0,0,1,15.87,1c.36-.32-.17-.85-.53-.53Z"/><path class="cls-5" d="M21.56,2.19A2.85,2.85,0,0,1,21.67,7c-.4.26,0,.91.38.64a3.59,3.59,0,0,0-.11-6.11c-.41-.26-.79.39-.38.64Z"/><path class="cls-5" d="M23.55,1a4.42,4.42,0,0,1-.33,6.85c-.39.28,0,.93.37.65a5.16,5.16,0,0,0,.49-8c-.36-.32-.89.21-.53.53Z"/><rect class="cls-2" x="112.83" y="4.4" width="1.83" height="5.22" rx="0.92"/><circle class="cls-2" cx="113.75" cy="5" r="1.33"/><path class="cls-3" d="M121.79,60.41H105.7a4.43,4.43,0,0,1-4.36-5.22l7-38.89a4.44,4.44,0,0,1,4.37-3.66h1.7a4.43,4.43,0,0,1,4.36,3.61l7.4,38.89A4.43,4.43,0,0,1,121.79,60.41Z"/><path class="cls-4" d="M122.29,55.43H105.2a2.4,2.4,0,0,1-2.36-2.83l6.47-36a2.4,2.4,0,0,1,2.37-2h3.76a2.39,2.39,0,0,1,2.36,2l6.86,36A2.41,2.41,0,0,1,122.29,55.43Z"/><rect class="cls-5" x="114.49" y="15.39" width="0.46" height="16.88" rx="0.23" transform="translate(16.75 88.1) rotate(-45)"/><rect class="cls-5" x="112.01" y="15.38" width="0.46" height="16.91" rx="0.23" transform="translate(174.75 120.05) rotate(-135)"/><rect class="cls-5" x="115.44" y="29.75" width="0.75" height="27.41" rx="0.33" transform="translate(3.2 94.62) rotate(-45)"/><rect class="cls-5" x="111.41" y="29.72" width="0.75" height="27.46" rx="0.33" transform="translate(160.11 153.21) rotate(-135)"/><rect class="cls-6" x="94.09" y="52.78" width="39.88" height="7.63" rx="3.82"/><rect class="cls-6" x="106.99" y="8.83" width="13.44" height="7.63" rx="3.08"/><path class="cls-5" d="M111.46,1.05a3.59,3.59,0,0,0-.12,6.12c.41.26.78-.39.38-.65a2.84,2.84,0,0,1,.11-4.82c.41-.26,0-.91-.37-.65Z"/><path class="cls-5" d="M109.43.1a5.17,5.17,0,0,0,.48,8c.4.28.77-.37.38-.65A4.41,4.41,0,0,1,110,.63c.36-.32-.17-.85-.53-.53Z"/><path class="cls-5" d="M115.65,1.87a2.84,2.84,0,0,1,.11,4.82c-.4.26,0,.91.38.65A3.59,3.59,0,0,0,116,1.22c-.4-.26-.78.39-.37.65Z"/><path class="cls-5" d="M117.52.8a4.42,4.42,0,0,1-.33,6.85c-.39.28,0,.93.38.65a5.17,5.17,0,0,0,.48-8c-.36-.32-.89.21-.53.53Z"/><rect class="cls-7" x="56.62" y="41.35" width="2.18" height="5.43" rx="0.85" transform="translate(54.33 -28.47) rotate(49.97)"/><rect class="cls-8" x="59.92" y="37.28" width="2.18" height="8.03" rx="0.85" transform="translate(53.39 -31.98) rotate(49.97)"/><rect class="cls-7" x="74.69" y="41.55" width="2.18" height="5.43" rx="0.85" transform="translate(-7.8 71.04) rotate(-48.05)"/><rect class="cls-8" x="71.49" y="37.38" width="2.18" height="8.03" rx="0.85" transform="translate(-6.72 67.71) rotate(-48.05)"/><circle class="cls-7" cx="62.3" cy="30.79" r="1.24"/><circle class="cls-9" cx="62.3" cy="30.79" r="0.8"/><circle class="cls-7" cx="71.94" cy="30.79" r="1.24"/><path class="cls-10" d="M65.8,36.68h2.64a4.73,4.73,0,0,1,4.73,4.73v5.85a0,0,0,0,1,0,0H61.06a0,0,0,0,1,0,0V41.42A4.73,4.73,0,0,1,65.8,36.68Z"/><circle class="cls-9" cx="71.94" cy="30.79" r="0.8"/><rect class="cls-7" x="64.72" y="34.13" width="4.79" height="4.79" rx="1.87"/><circle class="cls-11" cx="62.5" cy="27.96" r="1.04"/><circle class="cls-11" cx="71.65" cy="27.94" r="1.04"/><rect class="cls-12" x="62.3" y="24.35" width="9.63" height="12.18" rx="3.77"/><rect class="cls-5" x="64.72" y="29.93" width="1.19" height="1.72" rx="0.47"/><rect class="cls-5" x="68.32" y="29.93" width="1.19" height="1.72" rx="0.47"/><path class="cls-7" d="M67,31.07h.22a.39.39,0,0,1,.39.39v.88a0,0,0,0,1,0,0h-1a0,0,0,0,1,0,0v-.88A.39.39,0,0,1,67,31.07Z"/><path class="cls-13" d="M66.7,32.82h.83A1.49,1.49,0,0,1,69,34.31v.78a.12.12,0,0,1-.12.12H65.33a.12.12,0,0,1-.12-.12v-.78a1.49,1.49,0,0,1,1.49-1.49Z" transform="translate(134.24 68.04) rotate(180)"/><circle class="cls-11" cx="64.5" cy="26.26" r="2.2"/><circle class="cls-11" cx="67.12" cy="24.83" r="2.2"/><circle class="cls-11" cx="69.82" cy="26.26" r="2.2"/><path class="cls-14" d="M66.74,34.08c-.46,0-.62-.38-.9-.29-.12,0-.25.15-.36.5a1.81,1.81,0,0,0,.62.63,2.06,2.06,0,0,0,1.65.19.9.9,0,0,0,.16-.68.72.72,0,0,0-.3-.46C67.34,33.84,67.17,34.11,66.74,34.08Z"/><path class="cls-15" d="M66,32.82h2.29a0,0,0,0,1,0,0v.1a.35.35,0,0,1-.35.35H66.32a.35.35,0,0,1-.35-.35v-.1A0,0,0,0,1,66,32.82Z"/><rect class="cls-11" x="61.9" y="27.11" width="0.8" height="3.68" rx="0.31"/><rect class="cls-11" x="71.45" y="27.09" width="0.8" height="3.68" rx="0.31" transform="translate(143.69 57.86) rotate(180)"/><circle class="cls-7" cx="63.88" cy="32.65" r="0.62"/><circle class="cls-7" cx="70.33" cy="32.65" r="0.62"/><rect class="cls-10" x="64.72" y="36.68" width="4.79" height="2.41"/><rect class="cls-11" x="68.14" y="29.34" width="1.56" height="0.3" rx="0.12"/><rect class="cls-11" x="64.54" y="29.34" width="1.56" height="0.3" rx="0.12"/><rect class="cls-16" x="61.06" y="46.44" width="12.11" height="0.26"/><rect class="cls-16" x="61.06" y="45.58" width="12.11" height="0.26"/><rect class="cls-16" x="61.06" y="44.64" width="12.11" height="0.26"/><rect class="cls-13" x="60.51" y="47.27" width="13.14" height="2.71" rx="0.68"/><rect class="cls-13" x="61.9" y="49.01" width="4.71" height="12.08" rx="1.77"/><rect class="cls-13" x="67.62" y="49.01" width="4.71" height="12.08" rx="1.77"/><path class="cls-12" d="M38.26,42.54h0a1.2,1.2,0,0,1,1.2,1.2v4.75a0,0,0,0,1,0,0H37.06a0,0,0,0,1,0,0V43.74A1.2,1.2,0,0,1,38.26,42.54Z" transform="translate(50.52 103.7) rotate(-151.85)"/><path class="cls-5" d="M38.94,38.53h2.42a0,0,0,0,1,0,0v5.61a1.21,1.21,0,0,1-1.21,1.21h0a1.21,1.21,0,0,1-1.21-1.21V38.53A0,0,0,0,1,38.94,38.53Z" transform="translate(55.78 97.86) rotate(-151.85)"/><rect class="cls-17" x="37.47" y="43.92" width="2.62" height="1.15" rx="0.57" transform="translate(51.99 102.02) rotate(-151.85)"/><path class="cls-12" d="M52.26,42.58h2.39a0,0,0,0,1,0,0v4.75a1.2,1.2,0,0,1-1.2,1.2h0a1.2,1.2,0,0,1-1.2-1.2V42.58A0,0,0,0,1,52.26,42.58Z" transform="translate(-15.17 30.6) rotate(-28.15)"/><path class="cls-5" d="M51.56,38.56h0a1.21,1.21,0,0,1,1.21,1.21v5.61a0,0,0,0,1,0,0H50.35a0,0,0,0,1,0,0V39.77A1.21,1.21,0,0,1,51.56,38.56Z" transform="translate(-13.7 29.29) rotate(-28.15)"/><rect class="cls-17" x="51.62" y="43.96" width="2.62" height="1.15" rx="0.57" transform="translate(-14.75 30.24) rotate(-28.15)"/><circle class="cls-7" cx="41.11" cy="31.12" r="1.3"/><circle class="cls-9" cx="41.11" cy="31.12" r="0.84"/><circle class="cls-7" cx="51.21" cy="31.12" r="1.3"/><path class="cls-18" d="M46.16,37.14h0a6.35,6.35,0,0,1,6.35,6.35v4.75a0,0,0,0,1,0,0H39.81a0,0,0,0,1,0,0V43.5a6.35,6.35,0,0,1,6.35-6.35Z"/><path class="cls-5" d="M43.65,37.39h0a0,0,0,0,1,0,0V47a1.38,1.38,0,0,1-1.38,1.38H41.07A1.38,1.38,0,0,1,39.69,47V41.34A4,4,0,0,1,43.65,37.39Z"/><path class="cls-5" d="M50.06,37.39h1.17a1.38,1.38,0,0,1,1.38,1.38v9.58a0,0,0,0,1,0,0h0a3.92,3.92,0,0,1-3.92-3.92V38.77a1.38,1.38,0,0,1,1.38-1.38Z" transform="translate(101.28 85.74) rotate(-180)"/><path class="cls-15" d="M43.32,37.5h5.62a.14.14,0,0,1,.14.14v0A2.39,2.39,0,0,1,46.7,40H45.57a2.39,2.39,0,0,1-2.39-2.39v0A.14.14,0,0,1,43.32,37.5Z"/><path class="cls-15" d="M49.18,39.86a1.81,1.81,0,0,1-.5.46,1.44,1.44,0,0,1-.44.15.3.3,0,0,1-.34-.31v-2.7a.31.31,0,0,1,.3-.32H49a.3.3,0,0,1,.28.22A3.19,3.19,0,0,1,49.18,39.86Z"/><path class="cls-15" d="M43.17,39.85a1.67,1.67,0,0,0,.49.46,1.37,1.37,0,0,0,.52.17.24.24,0,0,0,.27-.24V37.39a.25.25,0,0,0-.25-.25h-.84a.25.25,0,0,0-.23.17A3.16,3.16,0,0,0,43.17,39.85Z"/><circle class="cls-9" cx="51.21" cy="31.12" r="0.84"/><rect class="cls-7" x="43.65" y="34.63" width="5.03" height="5.03" rx="2.51"/><rect class="cls-12" x="41.11" y="24.36" width="10.11" height="12.78" rx="5.05"/><rect class="cls-5" x="43.65" y="30.21" width="1.25" height="1.8" rx="0.63"/><rect class="cls-5" x="47.43" y="30.21" width="1.25" height="1.8" rx="0.63"/><path class="cls-7" d="M46.16,32.09h0a.53.53,0,0,1,.53.53v.13a0,0,0,0,1,0,0H45.63a0,0,0,0,1,0,0v-.13A.53.53,0,0,1,46.16,32.09Z"/><path class="cls-13" d="M46.16,33.26h0a2,2,0,0,1,2,2v.35a.16.16,0,0,1-.16.16H44.32a.16.16,0,0,1-.16-.16v-.35A2,2,0,0,1,46.16,33.26Z" transform="translate(92.32 69.02) rotate(180)"/><path class="cls-14" d="M45.77,34.57c-.49,0-.66-.4-1-.3-.12,0-.27.16-.37.52a1.86,1.86,0,0,0,.64.67,2.11,2.11,0,0,0,1.73.19.9.9,0,0,0,.17-.71.73.73,0,0,0-.32-.48C46.39,34.32,46.22,34.6,45.77,34.57Z"/><path class="cls-15" d="M45,33.26h2.4a0,0,0,0,1,0,0v0a.47.47,0,0,1-.47.47H45.43a.47.47,0,0,1-.47-.47v0a0,0,0,0,1,0,0Z"/><circle class="cls-5" cx="46.13" cy="41.59" r="0.27"/><circle class="cls-5" cx="46.13" cy="42.84" r="0.27"/><circle class="cls-5" cx="46.13" cy="44.1" r="0.27"/><circle class="cls-5" cx="46.13" cy="45.36" r="0.27"/><circle class="cls-5" cx="46.13" cy="46.61" r="0.27"/><rect class="cls-19" x="41.07" y="28.51" width="0.55" height="2.95" rx="0.28"/><rect class="cls-19" x="50.66" y="28.51" width="0.55" height="2.95" rx="0.28"/><circle class="cls-19" cx="40.96" cy="29.59" r="0.69"/><circle class="cls-19" cx="51.35" cy="29.59" r="0.69"/><rect class="cls-19" x="43.45" y="29.74" width="1.64" height="0.32" rx="0.16"/><rect class="cls-19" x="47.23" y="29.74" width="1.64" height="0.32" rx="0.16"/><path class="cls-20" d="M50,23.18V26a1.08,1.08,0,1,1-2.16,0v-3.7a1,1,0,0,1,.06-.35,4.74,4.74,0,0,0-.65-.16s0,.06,0,.09v3.7a1.09,1.09,0,1,1-2.17,0v-3.7s0-.06,0-.09a5.06,5.06,0,0,0-.67.17,1,1,0,0,1,.07.34V26a1.09,1.09,0,1,1-2.17,0V23.2a5.67,5.67,0,0,0-1.83,4.16v1.23a.61.61,0,0,0,.62.61H51.18a.61.61,0,0,0,.62-.61V27.36A5.64,5.64,0,0,0,50,23.18Z"/><path class="cls-21" d="M47.79,26c0,.6.48,1.42,1.08,1.42S50,26.61,50,26V23.18A5.53,5.53,0,0,0,47.85,22a1,1,0,0,0-.06.35Z"/><path class="cls-21" d="M43.36,27.43c.6,0,1.09-.82,1.09-1.42v-3.7a1,1,0,0,0-.07-.34,5.55,5.55,0,0,0-2.1,1.23V26C42.28,26.61,42.76,27.43,43.36,27.43Z"/><path class="cls-21" d="M45,25.59c0,.6.49,1.51,1.09,1.51s1.08-.91,1.08-1.51v-3.7s0-.06,0-.09a5.31,5.31,0,0,0-2.15,0s0,.06,0,.09Z"/><rect class="cls-21" x="39.72" y="28.63" width="12.79" height="0.58" rx="0.29"/><rect class="cls-5" x="39.38" y="47.86" width="13.55" height="2.57" rx="1.29"/><rect class="cls-5" x="41.35" y="49.15" width="4.05" height="11.54" rx="1.11"/><rect class="cls-5" x="46.65" y="49.15" width="4.05" height="11.54" rx="1.11"/><path class="cls-12" d="M79.81,42.53h0a1.2,1.2,0,0,1,1.2,1.2v4.75a0,0,0,0,1,0,0H78.62a0,0,0,0,1,0,0V43.73a1.2,1.2,0,0,1,1.2-1.2Z" transform="translate(128.72 123.29) rotate(-151.85)"/><path class="cls-5" d="M80.5,38.52h2.42a0,0,0,0,1,0,0v5.61a1.21,1.21,0,0,1-1.21,1.21h0a1.21,1.21,0,0,1-1.21-1.21V38.52A0,0,0,0,1,80.5,38.52Z" transform="translate(133.97 117.44) rotate(-151.85)"/><rect class="cls-17" x="79.03" y="43.91" width="2.62" height="1.15" rx="0.57" transform="translate(130.19 121.61) rotate(-151.85)"/><path class="cls-12" d="M93.81,42.57h2.39a0,0,0,0,1,0,0v4.75a1.2,1.2,0,0,1-1.2,1.2h0a1.2,1.2,0,0,1-1.2-1.2V42.57A0,0,0,0,1,93.81,42.57Z" transform="translate(-10.25 50.21) rotate(-28.15)"/><path class="cls-5" d="M93.12,38.55h0a1.21,1.21,0,0,1,1.21,1.21v5.61a0,0,0,0,1,0,0H91.9a0,0,0,0,1,0,0V39.77A1.21,1.21,0,0,1,93.12,38.55Z" transform="translate(-8.78 48.89) rotate(-28.15)"/><rect class="cls-17" x="93.18" y="43.95" width="2.62" height="1.15" rx="0.57" transform="translate(-9.83 49.84) rotate(-28.15)"/><circle class="cls-22" cx="82.33" cy="31.13" r="1.3"/><circle class="cls-23" cx="82.33" cy="31.13" r="0.84"/><circle class="cls-22" cx="92.44" cy="31.13" r="1.3"/><path class="cls-18" d="M87.38,37.15h0a6.35,6.35,0,0,1,6.35,6.35v4.75a0,0,0,0,1,0,0H81a0,0,0,0,1,0,0V43.5A6.35,6.35,0,0,1,87.38,37.15Z"/><path class="cls-5" d="M84.87,37.4h0a0,0,0,0,1,0,0V47a1.38,1.38,0,0,1-1.38,1.38H82.3A1.38,1.38,0,0,1,80.92,47V41.35A4,4,0,0,1,84.87,37.4Z"/><path class="cls-5" d="M91.28,37.4h1.17a1.38,1.38,0,0,1,1.38,1.38v9.58a0,0,0,0,1,0,0h0a3.92,3.92,0,0,1-3.92-3.92V38.78A1.38,1.38,0,0,1,91.28,37.4Z" transform="translate(183.72 85.76) rotate(180)"/><path class="cls-15" d="M84.55,37.51h5.62a.14.14,0,0,1,.14.14v0A2.39,2.39,0,0,1,87.92,40H86.8a2.39,2.39,0,0,1-2.39-2.39v0a.14.14,0,0,1,.14-.14Z"/><path class="cls-15" d="M90.4,39.86a1.67,1.67,0,0,1-.49.46,1.36,1.36,0,0,1-.45.16.3.3,0,0,1-.34-.32V37.47a.31.31,0,0,1,.3-.32h.75a.29.29,0,0,1,.28.22A3.12,3.12,0,0,1,90.4,39.86Z"/><path class="cls-15" d="M84.39,39.86a1.64,1.64,0,0,0,.5.46,1.28,1.28,0,0,0,.51.17.25.25,0,0,0,.27-.25V37.39a.24.24,0,0,0-.24-.24h-.84a.25.25,0,0,0-.24.17A3.2,3.2,0,0,0,84.39,39.86Z"/><circle class="cls-23" cx="92.44" cy="31.13" r="0.84"/><rect class="cls-22" x="84.87" y="34.64" width="5.03" height="5.03" rx="2.51"/><rect class="cls-24" x="82.33" y="24.37" width="10.11" height="12.78" rx="5.05"/><rect class="cls-25" x="84.87" y="30.22" width="1.25" height="1.8" rx="0.63"/><rect class="cls-25" x="88.65" y="30.22" width="1.25" height="1.8" rx="0.63"/><path class="cls-26" d="M87.38,32.09h0a.53.53,0,0,1,.53.53v.13a0,0,0,0,1,0,0H86.86a0,0,0,0,1,0,0v-.13A.53.53,0,0,1,87.38,32.09Z"/><path class="cls-13" d="M87.38,33.26h0a2,2,0,0,1,2,2v.35a.16.16,0,0,1-.16.16H85.55a.16.16,0,0,1-.16-.16v-.35A2,2,0,0,1,87.38,33.26Z" transform="translate(174.77 69.04) rotate(180)"/><path class="cls-14" d="M87,34.58c-.49,0-.66-.4-.95-.3-.12,0-.26.16-.37.52a1.94,1.94,0,0,0,.64.67,2.2,2.2,0,0,0,1.73.19.88.88,0,0,0,.17-.71.73.73,0,0,0-.31-.49C87.62,34.32,87.44,34.61,87,34.58Z"/><path class="cls-15" d="M86.18,33.26h2.4a0,0,0,0,1,0,0v0a.47.47,0,0,1-.47.47H86.65a.47.47,0,0,1-.47-.47v0A0,0,0,0,1,86.18,33.26Z"/><circle class="cls-5" cx="87.35" cy="41.6" r="0.27"/><circle class="cls-5" cx="87.35" cy="42.85" r="0.27"/><circle class="cls-5" cx="87.35" cy="44.11" r="0.27"/><circle class="cls-5" cx="87.35" cy="45.36" r="0.27"/><circle class="cls-5" cx="87.35" cy="46.62" r="0.27"/><rect class="cls-5" x="82.3" y="28.52" width="0.55" height="2.95" rx="0.28"/><rect class="cls-5" x="91.88" y="28.52" width="0.55" height="2.95" rx="0.28"/><circle class="cls-5" cx="82.18" cy="29.6" r="0.69"/><circle class="cls-5" cx="83.17" cy="28.91" r="0.69"/><circle class="cls-5" cx="84.41" cy="28.87" r="0.69"/><circle class="cls-5" cx="85.58" cy="28.87" r="0.69"/><circle class="cls-5" cx="86.81" cy="28.87" r="0.69"/><circle class="cls-5" cx="88.05" cy="28.91" r="0.69"/><circle class="cls-5" cx="89.34" cy="28.87" r="0.69"/><circle class="cls-5" cx="90.57" cy="28.91" r="0.69"/><circle class="cls-5" cx="91.83" cy="28.91" r="0.69"/><circle class="cls-5" cx="92.57" cy="29.6" r="0.69"/><rect class="cls-5" x="84.68" y="29.75" width="1.64" height="0.32" rx="0.16"/><rect class="cls-5" x="88.45" y="29.75" width="1.64" height="0.32" rx="0.16"/><path class="cls-20" d="M91.18,23.19V26A1.09,1.09,0,1,1,89,26v-3.7a1,1,0,0,1,.06-.35,6.17,6.17,0,0,0-.65-.17.38.38,0,0,1,0,.1v3.7a1.08,1.08,0,1,1-2.16,0V21.9a.38.38,0,0,1,0-.1,6.56,6.56,0,0,0-.67.17,1.35,1.35,0,0,1,.06.35V26a1.09,1.09,0,1,1-2.17,0V23.21a5.65,5.65,0,0,0-1.82,4.16v1.22a.61.61,0,0,0,.62.62H92.4a.61.61,0,0,0,.62-.62V27.37A5.65,5.65,0,0,0,91.18,23.19Z"/><path class="cls-21" d="M89,26c0,.6.48,1.42,1.08,1.42s1.09-.82,1.09-1.42V23.19A5.65,5.65,0,0,0,89.07,22a1,1,0,0,0-.06.35Z"/><path class="cls-21" d="M84.59,27.44c.59,0,1.08-.82,1.08-1.42v-3.7a1.35,1.35,0,0,0-.06-.35,5.75,5.75,0,0,0-2.11,1.24V26C83.5,26.62,84,27.44,84.59,27.44Z"/><path class="cls-21" d="M86.27,25.6c0,.6.48,1.5,1.08,1.5s1.08-.9,1.08-1.5V21.9a.38.38,0,0,0,0-.1,5.77,5.77,0,0,0-2.14,0,.38.38,0,0,0,0,.1Z"/><rect class="cls-21" x="80.94" y="28.63" width="12.79" height="0.58" rx="0.29"/><path class="cls-5" d="M89.78,27.17h2.74a0,0,0,0,1,0,0v0a2.11,2.11,0,0,1-2.11,2.11H87.67a0,0,0,0,1,0,0v0A2.11,2.11,0,0,1,89.78,27.17Z"/><rect class="cls-5" x="80.61" y="47.85" width="13.55" height="2.57" rx="1.29"/><rect class="cls-5" x="82.82" y="49.14" width="4.05" height="11.54" rx="1.11"/><rect class="cls-5" x="88.12" y="49.14" width="4.05" height="11.54" rx="1.11"/></g></g></svg>