<svg xmlns="http://www.w3.org/2000/svg" viewBox="0 0 120.78 110.24"><defs><style>.cls-1{fill:#f2928b;}.cls-2{fill:#e58887;}.cls-3{fill:#99d6f0;}.cls-4{fill:#112439;}.cls-5{fill:#fff;}.cls-6{fill:#f2ae9f;}.cls-7{fill:#8b143a;}.cls-8{fill:#e72662;}.cls-9{fill:#8e4d21;}.cls-10{fill:#e78f26;}.cls-11{fill:#e27829;}.cls-12{fill:none;stroke:#080d13;stroke-miterlimit:10;}.cls-13{fill:#080d13;}.cls-14{fill:#e84043;}.cls-15{fill:#405d6d;}.cls-16{fill:#fbde63;opacity:0.57;}</style></defs><title>TipoRecurso 6</title><g id="Capa_2" data-name="Capa 2"><g id="Junta_de_Trabajo" data-name="Junta de Trabajo"><circle class="cls-1" cx="73.25" cy="38.98" r="5.38"/><circle class="cls-2" cx="73.25" cy="38.98" r="3.47"/><circle class="cls-1" cx="115.05" cy="38.98" r="5.38"/><path class="cls-3" d="M91.43,63.9h5.44a23.56,23.56,0,0,1,23.56,23.56v22.38a0,0,0,0,1,0,0H67.87a0,0,0,0,1,0,0V87.46A23.56,23.56,0,0,1,91.43,63.9Z"/><path class="cls-4" d="M83.28,64.93h.47a0,0,0,0,1,0,0v43.93a1.38,1.38,0,0,1-1.38,1.38H68.78a1.38,1.38,0,0,1-1.38-1.38V80.81A15.88,15.88,0,0,1,83.28,64.93Z"/><path class="cls-4" d="M105.93,64.93H119.4a1.38,1.38,0,0,1,1.38,1.38v43.93a0,0,0,0,1,0,0h-.35a15.88,15.88,0,0,1-15.88-15.88V66.31A1.38,1.38,0,0,1,105.93,64.93Z" transform="translate(225.33 175.17) rotate(-180)"/><path class="cls-5" d="M82.31,65.38h23.47a.47.47,0,0,1,.47.47v1.92a8.06,8.06,0,0,1-8.06,8.06H89.9a8.06,8.06,0,0,1-8.06-8.06V65.85a.47.47,0,0,1,.47-.47Z"/><path class="cls-5" d="M106.62,75.12a6.94,6.94,0,0,1-2,1.9,5.49,5.49,0,0,1-1.85.65,1.26,1.26,0,0,1-1.39-1.31V65.22a1.27,1.27,0,0,1,1.22-1.32h3.13a1.21,1.21,0,0,1,1.15.89C108.17,69.21,108,73.16,106.62,75.12Z"/><path class="cls-5" d="M81.78,75.12a7.15,7.15,0,0,0,2,1.9,5.62,5.62,0,0,0,2.15.69,1,1,0,0,0,1.1-1V64.91a1,1,0,0,0-1-1H82.58a1,1,0,0,0-1,.7C80.23,69.09,80.37,73.13,81.78,75.12Z"/><circle class="cls-2" cx="115.05" cy="38.98" r="3.47"/><rect class="cls-1" x="83.75" y="53.5" width="20.8" height="20.8" rx="8.39"/><rect class="cls-6" x="73.25" y="11.04" width="41.8" height="52.86" rx="19.01"/><rect class="cls-4" x="83.75" y="35.25" width="5.17" height="7.46" rx="2.59"/><rect class="cls-4" x="99.38" y="35.25" width="5.17" height="7.46" rx="2.59"/><path class="cls-1" d="M94.15,43h0a2.18,2.18,0,0,1,2.18,2.18v.56a0,0,0,0,1,0,0H92a0,0,0,0,1,0,0v-.56A2.18,2.18,0,0,1,94.15,43Z"/><path class="cls-7" d="M94.15,47.82h0a8.27,8.27,0,0,1,8.27,8.27v1.43a.67.67,0,0,1-.67.67H86.55a.67.67,0,0,1-.67-.67V56.09a8.27,8.27,0,0,1,8.27-8.27Z" transform="translate(188.3 106.02) rotate(180)"/><path class="cls-8" d="M92.52,53.26c-2-.13-2.72-1.64-3.92-1.24-.5.16-1.11.66-1.54,2.15a8,8,0,0,0,2.65,2.77,9,9,0,0,0,7.16.8,3.79,3.79,0,0,0,.7-2.93,2.92,2.92,0,0,0-1.31-2C95.11,52.21,94.37,53.39,92.52,53.26Z"/><path class="cls-5" d="M89.18,47.82h9.94a0,0,0,0,1,0,0v.76a1.17,1.17,0,0,1-1.17,1.17h-7.6a1.17,1.17,0,0,1-1.17-1.17v-.76A0,0,0,0,1,89.18,47.82Z"/><circle class="cls-4" cx="94.01" cy="82.29" r="1.11"/><circle class="cls-4" cx="94.01" cy="87.48" r="1.11"/><circle class="cls-4" cx="94.01" cy="92.68" r="1.11"/><circle class="cls-4" cx="94.01" cy="97.87" r="1.11"/><circle class="cls-4" cx="94.01" cy="103.07" r="1.11"/><rect class="cls-9" x="73.11" y="28.2" width="2.29" height="12.22" rx="1.15"/><rect class="cls-9" x="112.76" y="28.2" width="2.29" height="12.22" rx="1.15"/><circle class="cls-9" cx="72.62" cy="32.67" r="2.84"/><circle class="cls-9" cx="115.6" cy="32.67" r="2.84"/><rect class="cls-9" x="82.94" y="33.28" width="6.78" height="1.32" rx="0.66"/><rect class="cls-9" x="98.57" y="33.28" width="6.78" height="1.32" rx="0.66"/><path class="cls-10" d="M109.84,6.15V17.88a4.49,4.49,0,0,1-9,0V2.57a4.44,4.44,0,0,1,.26-1.46A21.9,21.9,0,0,0,98.45.43c0,.13,0,.26,0,.4v15.3a4.49,4.49,0,1,1-9,0V.83c0-.14,0-.27,0-.4a23.23,23.23,0,0,0-2.76.7,4.64,4.64,0,0,1,.26,1.44V17.88a4.49,4.49,0,0,1-9,0V6.23a23.39,23.39,0,0,0-7.54,17.23v5.05a2.56,2.56,0,0,0,2.56,2.56h41.8a2.56,2.56,0,0,0,2.56-2.56V23.46A23.4,23.4,0,0,0,109.84,6.15Z"/><path class="cls-11" d="M100.87,17.88c0,2.48,2,5.84,4.48,5.84s4.49-3.36,4.49-5.84V6.15a23.52,23.52,0,0,0-8.71-5,4.44,4.44,0,0,0-.26,1.46Z"/><path class="cls-11" d="M82.57,23.72c2.48,0,4.49-3.36,4.49-5.84V2.57a4.64,4.64,0,0,0-.26-1.44,23.5,23.5,0,0,0-8.71,5.1V17.88C78.09,20.36,80.09,23.72,82.57,23.72Z"/><path class="cls-11" d="M89.52,16.13c0,2.48,2,6.22,4.49,6.22s4.48-3.74,4.48-6.22V.83c0-.14,0-.27,0-.4a23.19,23.19,0,0,0-8.89,0c0,.13,0,.26,0,.4Z"/><rect class="cls-11" x="67.51" y="28.67" width="52.91" height="2.4" rx="1.2"/><rect class="cls-12" x="96" y="35.25" width="13.34" height="8.54" rx="1.38"/><rect class="cls-12" x="78.96" y="35.25" width="13.25" height="8.54" rx="1.38"/><rect class="cls-13" x="92.21" y="35.51" width="3.79" height="1.55"/><rect class="cls-13" x="75.38" y="35.45" width="3.58" height="1.07"/><rect class="cls-13" x="109.34" y="35.45" width="3.42" height="1.07"/><circle class="cls-1" cx="5.38" cy="38.3" r="5.38"/><circle class="cls-2" cx="5.38" cy="38.3" r="3.47"/><circle class="cls-1" cx="47.18" cy="38.3" r="5.38"/><path class="cls-14" d="M23.56,63.9H29A23.56,23.56,0,0,1,52.56,87.46v22.38a0,0,0,0,1,0,0H0a0,0,0,0,1,0,0V87.46A23.56,23.56,0,0,1,23.56,63.9Z"/><circle class="cls-2" cx="47.18" cy="38.3" r="3.47"/><rect class="cls-1" x="15.88" y="52.82" width="20.8" height="20.8" rx="8.39"/><circle class="cls-15" cx="6.24" cy="26.04" r="4.51"/><circle class="cls-15" cx="45.93" cy="25.95" r="4.51"/><rect class="cls-6" x="5.38" y="10.36" width="41.8" height="52.86" rx="19.01"/><rect class="cls-4" x="15.88" y="34.57" width="5.17" height="7.46" rx="2.59"/><rect class="cls-4" x="31.51" y="34.57" width="5.17" height="7.46" rx="2.59"/><path class="cls-1" d="M26.28,39.52h0a2.18,2.18,0,0,1,2.18,2.18V45a0,0,0,0,1,0,0H24.09a0,0,0,0,1,0,0V41.7A2.18,2.18,0,0,1,26.28,39.52Z"/><path class="cls-7" d="M26.28,47.15h0a8.27,8.27,0,0,1,8.27,8.27v1.43a.67.67,0,0,1-.67.67H18.68a.67.67,0,0,1-.67-.67V55.42a8.27,8.27,0,0,1,8.27-8.27Z" transform="translate(52.56 104.66) rotate(180)"/><circle class="cls-15" cx="14.92" cy="18.65" r="9.54"/><circle class="cls-15" cx="26.28" cy="12.43" r="9.54"/><circle class="cls-15" cx="38.01" cy="18.65" r="9.54"/><path class="cls-8" d="M24.65,52.59c-2-.14-2.72-1.64-3.92-1.25-.5.16-1.11.66-1.55,2.15a8.19,8.19,0,0,0,2.66,2.77,9,9,0,0,0,7.16.8,3.79,3.79,0,0,0,.7-2.93,2.94,2.94,0,0,0-1.31-2C27.24,51.53,26.5,52.71,24.65,52.59Z"/><path class="cls-5" d="M21.31,47.15h9.94a0,0,0,0,1,0,0v.76a1.17,1.17,0,0,1-1.17,1.17h-7.6a1.17,1.17,0,0,1-1.17-1.17v-.76A0,0,0,0,1,21.31,47.15Z"/><rect class="cls-15" x="3.64" y="22.35" width="3.47" height="15.95" rx="1.73"/><rect class="cls-15" x="45.06" y="22.27" width="3.47" height="15.95" rx="1.73" transform="translate(93.59 60.48) rotate(180)"/><circle class="cls-1" cx="12.22" cy="46.38" r="2.7"/><circle class="cls-1" cx="40.22" cy="46.38" r="2.7"/><rect class="cls-14" x="15.88" y="63.9" width="20.8" height="10.46"/><rect class="cls-15" x="30.7" y="32.01" width="6.78" height="1.32" rx="0.66"/><rect class="cls-15" x="15.07" y="32.01" width="6.78" height="1.32" rx="0.66"/><rect class="cls-16" y="106.26" width="52.56" height="1.11"/><rect class="cls-16" y="102.51" width="52.56" height="1.11"/><rect class="cls-16" y="98.43" width="52.56" height="1.11"/></g></g></svg>